<svg xmlns="http://www.w3.org/2000/svg" xmlns:xlink="http://www.w3.org/1999/xlink" width="100" zoomAndPan="magnify" viewBox="0 0 75 74.999997" height="100" preserveAspectRatio="xMidYMid meet" version="1.0"><defs><clipPath id="269c4ffac2"><path d="M 0 0.5625 L 75 0.5625 L 75 74.8125 L 0 74.8125 Z M 0 0.5625 " clip-rule="nonzero"/></clipPath></defs><g clip-path="url(#269c4ffac2)"><path fill="#fff" d="M 37.519531 0.578125 C 36.160156 0.578125 34.816406 0.652344 33.492188 0.792969 C 30.027344 1.074219 26.890625 1.71875 24.769531 2.683594 L 24.761719 2.6875 L 24.757812 2.6875 C 24.664062 2.75 24.601562 2.804688 24.511719 2.867188 C 23.359375 3.195312 22.296875 3.648438 21.324219 4.21875 C 8.824219 10.167969 0.167969 22.792969 0.0546875 37.425781 L 0.0429688 37.464844 L 0.0429688 37.484375 C 0.0429688 37.53125 0.0507812 37.574219 0.0507812 37.621094 C 0.0507812 37.652344 0.046875 37.679688 0.046875 37.710938 C 0.046875 44.917969 2.128906 51.644531 5.71875 57.339844 C 6.042969 58.121094 6.558594 58.867188 7.246094 59.585938 C 12.226562 66.339844 19.449219 71.363281 27.824219 73.582031 C 30.917969 74.402344 34.164062 74.847656 37.519531 74.847656 C 38.65625 74.847656 39.785156 74.789062 40.898438 74.691406 C 40.933594 74.6875 40.972656 74.6875 41.011719 74.683594 C 42.25 74.566406 43.472656 74.394531 44.675781 74.164062 C 47.398438 73.738281 49.90625 73.039062 51.855469 72.023438 C 56.46875 70.125 60.617188 67.347656 64.082031 63.890625 L 64.113281 63.859375 C 65.957031 62.136719 67.542969 60.179688 68.863281 58.046875 C 72.734375 52.207031 74.988281 45.21875 74.988281 37.710938 C 74.988281 29.660156 72.394531 22.210938 67.996094 16.125 L 67.839844 15.914062 C 63.738281 10.320312 58.105469 5.90625 51.546875 3.277344 C 51.542969 3.277344 51.539062 3.277344 51.535156 3.273438 C 49.0625 1.996094 45.695312 1.222656 42.128906 0.867188 C 40.617188 0.683594 39.082031 0.578125 37.519531 0.578125 Z M 36.761719 0.804688 C 37.433594 0.796875 38.113281 0.800781 38.789062 0.820312 C 39.773438 0.847656 40.75 0.914062 41.71875 1.003906 C 41.886719 1.019531 42.050781 1.046875 42.214844 1.066406 C 41.003906 1.199219 39.621094 1.925781 38.078125 3.242188 C 38.070312 3.246094 38.058594 3.246094 38.050781 3.25 C 37.917969 3.210938 37.792969 3.167969 37.660156 3.128906 L 37.640625 3.121094 L 37.617188 3.125 L 37.246094 3.210938 C 36.710938 2.511719 36.195312 1.929688 35.71875 1.574219 C 35.222656 1.203125 34.753906 1.011719 34.316406 0.996094 C 34.167969 0.992188 34.027344 1.007812 33.886719 1.042969 C 33.335938 1.175781 32.859375 1.613281 32.449219 2.289062 C 32.421875 2.332031 32.402344 2.398438 32.375 2.445312 C 31.285156 2.300781 30.234375 2.207031 29.246094 2.210938 C 28.199219 2.210938 27.226562 2.316406 26.289062 2.46875 C 28.65625 1.730469 31.125 1.21875 33.671875 0.957031 L 33.703125 0.953125 C 34.703125 0.875 35.722656 0.820312 36.761719 0.804688 Z M 34.3125 1.171875 C 34.703125 1.183594 35.136719 1.359375 35.617188 1.714844 C 36.058594 2.042969 36.550781 2.59375 37.0625 3.253906 C 36.929688 3.28125 36.800781 3.3125 36.667969 3.34375 C 35.226562 2.941406 33.855469 2.648438 32.554688 2.464844 C 32.570312 2.441406 32.582031 2.402344 32.59375 2.378906 C 32.992188 1.726562 33.4375 1.332031 33.929688 1.210938 C 34.054688 1.179688 34.179688 1.167969 34.3125 1.171875 Z M 42.710938 1.210938 C 42.917969 1.214844 43.113281 1.238281 43.308594 1.277344 C 44.144531 1.4375 44.886719 1.921875 45.535156 2.671875 C 45.363281 2.664062 45.203125 2.644531 45.027344 2.640625 C 42.996094 2.601562 40.789062 2.789062 38.414062 3.1875 C 40.050781 1.839844 41.488281 1.191406 42.710938 1.210938 Z M 44.074219 1.34375 C 46.65625 1.800781 49.140625 2.511719 51.511719 3.460938 C 51.691406 3.554688 51.84375 3.664062 52.015625 3.765625 C 50.15625 3.148438 48.066406 2.792969 45.769531 2.6875 C 45.265625 2.074219 44.699219 1.617188 44.074219 1.34375 Z M 27.417969 1.953125 C 27.273438 1.992188 27.125 2.03125 26.980469 2.074219 C 27.125 2.035156 27.269531 1.992188 27.417969 1.953125 Z M 29.25 2.378906 C 30.214844 2.378906 31.238281 2.46875 32.296875 2.609375 C 32.101562 2.976562 31.917969 3.402344 31.753906 3.886719 C 27.484375 4.414062 23.75 5.320312 20.5 6.542969 C 21.347656 5.480469 22.691406 4.316406 24.539062 3.066406 C 24.667969 3.015625 24.800781 2.96875 24.929688 2.921875 C 26.253906 2.578125 27.679688 2.378906 29.25 2.378906 Z M 32.472656 2.632812 C 33.6875 2.800781 34.964844 3.0625 36.304688 3.425781 L 35.941406 3.507812 C 34.5625 3.59375 33.222656 3.707031 31.941406 3.859375 C 32.105469 3.390625 32.285156 2.980469 32.472656 2.632812 Z M 45.023438 2.808594 C 45.25 2.8125 45.457031 2.84375 45.683594 2.851562 C 46.015625 3.265625 46.316406 3.785156 46.601562 4.34375 C 44.222656 3.925781 41.660156 3.640625 38.90625 3.5 C 38.746094 3.453125 38.585938 3.402344 38.421875 3.355469 C 40.792969 2.957031 43 2.773438 45.023438 2.808594 Z M 45.917969 2.867188 C 48.496094 2.996094 50.78125 3.476562 52.796875 4.25 C 53.804688 5.097656 54.550781 5.890625 55.082031 6.640625 C 52.617188 5.6875 49.867188 4.925781 46.8125 4.378906 C 46.535156 3.820312 46.242188 3.292969 45.917969 2.867188 Z M 37.640625 3.304688 C 37.648438 3.308594 37.65625 3.3125 37.664062 3.3125 L 37.460938 3.347656 C 37.523438 3.335938 37.578125 3.316406 37.640625 3.304688 Z M 23.878906 3.328125 C 22.207031 4.515625 20.96875 5.628906 20.203125 6.660156 C 19.257812 7.023438 18.34375 7.40625 17.480469 7.824219 C 18.523438 6.480469 19.765625 5.359375 21.203125 4.480469 C 22.074219 4.0625 22.96875 3.679688 23.878906 3.328125 Z M 37.179688 3.410156 C 37.1875 3.417969 37.195312 3.425781 37.203125 3.433594 C 37.148438 3.4375 37.097656 3.445312 37.042969 3.449219 L 37.035156 3.445312 Z M 38.109375 3.445312 L 38.179688 3.464844 L 38.089844 3.460938 Z M 37.597656 3.613281 L 37.644531 3.617188 C 37.636719 3.621094 37.632812 3.625 37.625 3.628906 Z M 37.894531 3.625 C 38.226562 3.636719 38.550781 3.65625 38.875 3.671875 C 42.03125 4.613281 44.945312 5.699219 47.632812 6.921875 C 47.738281 7.277344 47.832031 7.671875 47.925781 8.054688 C 46.375 7.855469 44.796875 7.707031 43.203125 7.617188 C 41.511719 6.242188 39.703125 4.941406 37.773438 3.730469 Z M 36.832031 3.628906 C 34.828125 4.621094 32.941406 5.710938 31.167969 6.894531 C 31.289062 6.234375 31.421875 5.617188 31.566406 5.058594 C 31.585938 4.984375 31.609375 4.925781 31.632812 4.851562 C 33.035156 4.425781 34.492188 4.035156 36 3.683594 C 36.277344 3.664062 36.550781 3.644531 36.832031 3.628906 Z M 37.15625 3.65625 C 37.246094 3.683594 37.332031 3.703125 37.421875 3.730469 L 37.453125 3.773438 C 37.429688 3.796875 37.40625 3.8125 37.378906 3.839844 L 37.375 3.839844 L 37.371094 3.84375 C 36.402344 4.941406 35.496094 6.21875 34.648438 7.617188 C 33.429688 7.683594 32.21875 7.78125 31.023438 7.902344 C 31.0625 7.640625 31.09375 7.367188 31.132812 7.125 C 33.011719 5.863281 35.015625 4.699219 37.15625 3.65625 Z M 39.605469 3.707031 C 42.132812 3.863281 44.492188 4.140625 46.695312 4.535156 C 46.808594 4.765625 46.933594 4.964844 47.035156 5.214844 C 47.226562 5.667969 47.390625 6.179688 47.554688 6.699219 C 45.097656 5.585938 42.453125 4.585938 39.605469 3.707031 Z M 34.941406 3.742188 C 33.828125 4.019531 32.75 4.328125 31.695312 4.648438 C 31.757812 4.433594 31.820312 4.238281 31.886719 4.042969 C 32.878906 3.921875 33.894531 3.820312 34.941406 3.742188 Z M 37.5625 3.914062 C 37.621094 4 37.675781 4.054688 37.734375 4.144531 L 37.738281 4.152344 C 38.113281 5.226562 38.46875 6.355469 38.8125 7.5 C 38.519531 7.5 38.226562 7.496094 37.933594 7.5 C 37.046875 7.511719 36.15625 7.539062 35.269531 7.578125 C 35.136719 7.585938 35.003906 7.597656 34.867188 7.605469 C 35.691406 6.261719 36.5625 5.023438 37.496094 3.964844 C 37.519531 3.945312 37.539062 3.933594 37.5625 3.914062 Z M 37.804688 3.949219 C 39.609375 5.089844 41.308594 6.3125 42.902344 7.601562 C 41.605469 7.53125 40.296875 7.5 38.988281 7.5 C 38.636719 6.332031 38.28125 5.183594 37.898438 4.085938 L 37.894531 4.078125 L 37.890625 4.066406 C 37.859375 4.019531 37.835938 3.992188 37.804688 3.949219 Z M 52.675781 3.957031 C 53.0625 4.125 53.445312 4.296875 53.824219 4.476562 C 53.523438 4.34375 53.207031 4.230469 52.898438 4.109375 L 52.828125 4.046875 L 52.824219 4.042969 C 52.777344 4.011719 52.722656 3.988281 52.675781 3.957031 Z M 31.691406 4.070312 C 31.625 4.277344 31.554688 4.480469 31.492188 4.707031 C 26.882812 6.117188 22.832031 7.90625 19.316406 9.984375 C 19.230469 9.5 19.257812 8.988281 19.429688 8.441406 C 19.59375 7.921875 19.894531 7.375 20.320312 6.796875 C 23.589844 5.542969 27.363281 4.609375 31.691406 4.070312 Z M 53.269531 4.4375 C 55.625 5.421875 57.601562 6.816406 59.210938 8.546875 C 58.019531 7.894531 56.738281 7.292969 55.371094 6.75 C 54.886719 6.019531 54.1875 5.25 53.269531 4.4375 Z M 46.90625 4.570312 C 50 5.132812 52.773438 5.914062 55.253906 6.894531 C 55.859375 7.828125 56.125 8.683594 56.085938 9.460938 C 56.082031 9.550781 56.0625 9.636719 56.046875 9.726562 C 55.96875 9.703125 55.890625 9.671875 55.8125 9.648438 C 54.386719 9.234375 52.902344 8.886719 51.375 8.597656 C 50.226562 7.96875 49.023438 7.367188 47.777344 6.796875 C 47.597656 6.214844 47.40625 5.65625 47.195312 5.152344 C 47.109375 4.9375 47 4.769531 46.90625 4.570312 Z M 31.429688 4.917969 C 31.417969 4.953125 31.40625 4.980469 31.398438 5.015625 C 31.242188 5.621094 31.105469 6.300781 30.980469 7.023438 C 30.472656 7.363281 29.976562 7.710938 29.488281 8.066406 C 26.0625 8.476562 22.785156 9.097656 19.804688 9.894531 C 23.183594 7.941406 27.054688 6.261719 31.429688 4.917969 Z M 54.730469 4.9375 C 55.105469 5.132812 55.476562 5.332031 55.847656 5.539062 C 59.1875 7.410156 62.210938 9.773438 64.808594 12.535156 C 63.332031 11.167969 61.621094 9.921875 59.683594 8.816406 C 58.578125 7.558594 57.3125 6.445312 55.84375 5.539062 C 55.492188 5.320312 55.105469 5.132812 54.730469 4.9375 Z M 20.039062 5.074219 C 18.984375 5.867188 18.035156 6.789062 17.222656 7.863281 C 17.1875 7.90625 17.15625 7.957031 17.121094 8.003906 C 13.460938 9.828125 10.554688 12.105469 8.335938 14.71875 C 11.515625 10.761719 15.496094 7.464844 20.039062 5.074219 Z M 20.023438 6.910156 C 19.671875 7.421875 19.414062 7.914062 19.265625 8.386719 C 19.078125 8.980469 19.050781 9.546875 19.152344 10.078125 C 18.050781 10.386719 16.976562 10.714844 15.972656 11.070312 C 15.773438 11.144531 15.589844 11.21875 15.394531 11.292969 C 15.917969 10.152344 16.53125 9.09375 17.238281 8.140625 C 18.121094 7.703125 19.050781 7.292969 20.023438 6.910156 Z M 55.53125 6.996094 C 56.984375 7.585938 58.328125 8.242188 59.582031 8.957031 C 59.761719 9.164062 59.957031 9.359375 60.128906 9.578125 C 60.71875 10.320312 61.246094 11.117188 61.722656 11.953125 C 60.03125 11.097656 58.1875 10.371094 56.21875 9.777344 C 56.234375 9.675781 56.253906 9.574219 56.261719 9.46875 C 56.300781 8.703125 56.066406 7.878906 55.53125 6.996094 Z M 47.851562 7.027344 C 48.886719 7.503906 49.894531 7.992188 50.859375 8.503906 C 49.957031 8.34375 49.039062 8.199219 48.113281 8.078125 C 48.027344 7.726562 47.949219 7.355469 47.851562 7.027344 Z M 30.945312 7.253906 C 30.910156 7.464844 30.878906 7.695312 30.84375 7.917969 C 30.511719 7.953125 30.175781 7.980469 29.847656 8.019531 C 30.207031 7.757812 30.574219 7.503906 30.945312 7.253906 Z M 37.933594 7.675781 C 38.242188 7.671875 38.554688 7.675781 38.863281 7.675781 C 39.628906 10.253906 40.320312 12.984375 40.9375 15.824219 C 39.453125 15.914062 37.941406 15.949219 36.4375 15.921875 C 34.621094 15.886719 32.828125 15.753906 31.113281 15.546875 C 32.171875 12.671875 33.386719 10.054688 34.753906 7.789062 C 34.929688 7.777344 35.101562 7.761719 35.28125 7.753906 C 36.164062 7.710938 37.046875 7.6875 37.933594 7.675781 Z M 39.039062 7.675781 C 40.410156 7.675781 41.78125 7.710938 43.136719 7.789062 C 45.210938 9.480469 47.09375 11.289062 48.820312 13.183594 C 48.875 13.660156 48.929688 14.132812 48.972656 14.628906 C 46.648438 15.238281 43.949219 15.640625 41.113281 15.820312 C 40.5 12.980469 39.804688 10.253906 39.039062 7.675781 Z M 34.53125 7.800781 C 33.179688 10.0625 31.976562 12.671875 30.929688 15.523438 C 30.75 15.503906 30.566406 15.476562 30.386719 15.449219 C 30.488281 12.675781 30.683594 10.183594 30.992188 8.078125 C 32.160156 7.960938 33.339844 7.867188 34.53125 7.800781 Z M 43.4375 7.808594 C 44.96875 7.902344 46.484375 8.042969 47.976562 8.234375 C 48.316406 9.632812 48.585938 11.195312 48.789062 12.902344 C 47.152344 11.121094 45.382812 9.410156 43.4375 7.808594 Z M 30.816406 8.097656 C 30.507812 10.199219 30.308594 12.675781 30.210938 15.429688 C 27.550781 15.054688 25.160156 14.460938 23.285156 13.664062 C 25.164062 11.722656 27.257812 9.90625 29.550781 8.234375 C 29.96875 8.183594 30.390625 8.140625 30.816406 8.097656 Z M 48.160156 8.261719 C 49.230469 8.402344 50.289062 8.5625 51.324219 8.761719 C 52.765625 9.546875 54.128906 10.367188 55.417969 11.230469 C 54.894531 11.945312 54.085938 12.589844 53.03125 13.148438 C 52.183594 13.597656 51.171875 13.988281 50.0625 14.332031 C 49.710938 13.917969 49.351562 13.511719 48.988281 13.109375 C 48.785156 11.335938 48.511719 9.710938 48.160156 8.261719 Z M 29.1875 8.28125 C 26.96875 9.921875 24.949219 11.699219 23.121094 13.59375 C 22.324219 13.242188 21.597656 12.863281 21.023438 12.4375 C 20.296875 11.890625 19.773438 11.285156 19.496094 10.621094 C 19.4375 10.484375 19.398438 10.339844 19.359375 10.199219 C 22.367188 9.363281 25.695312 8.714844 29.1875 8.28125 Z M 16.910156 8.304688 C 16.246094 9.246094 15.664062 10.277344 15.164062 11.386719 C 12.234375 12.5 9.789062 13.808594 8.097656 15.285156 C 8.207031 15.152344 8.304688 15.015625 8.417969 14.882812 C 10.566406 12.335938 13.378906 10.105469 16.910156 8.304688 Z M 51.867188 8.871094 C 53.203125 9.136719 54.503906 9.445312 55.761719 9.8125 C 55.851562 9.839844 55.933594 9.871094 56.023438 9.898438 C 55.941406 10.320312 55.769531 10.714844 55.519531 11.09375 C 54.363281 10.320312 53.144531 9.582031 51.867188 8.871094 Z M 60.050781 9.234375 C 62.769531 10.847656 65.011719 12.746094 66.792969 14.863281 C 67.128906 15.261719 67.449219 15.671875 67.753906 16.085938 C 68.027344 16.457031 68.285156 16.839844 68.535156 17.222656 C 66.871094 15.152344 64.632812 13.449219 61.996094 12.085938 C 61.480469 11.160156 60.910156 10.28125 60.261719 9.46875 C 60.199219 9.386719 60.117188 9.316406 60.050781 9.234375 Z M 56.191406 9.953125 C 58.230469 10.570312 60.136719 11.320312 61.871094 12.214844 C 62.945312 14.15625 63.734375 16.332031 64.261719 18.671875 C 61.894531 15.984375 59.035156 13.460938 55.660156 11.1875 C 55.921875 10.800781 56.101562 10.390625 56.191406 9.949219 Z M 19.195312 10.261719 C 19.234375 10.40625 19.277344 10.550781 19.335938 10.691406 C 19.628906 11.390625 20.175781 12.015625 20.921875 12.574219 C 21.492188 13.003906 22.207031 13.382812 22.992188 13.730469 C 19.542969 17.332031 16.808594 21.335938 14.710938 25.503906 C 14.542969 25.558594 14.367188 25.601562 14.203125 25.65625 C 13.769531 25.800781 13.367188 25.964844 12.945312 26.117188 C 12.796875 21.476562 13.285156 17.125 14.527344 13.457031 C 15.960938 12.332031 17.519531 11.261719 19.195312 10.261719 Z M 18.609375 10.410156 C 17.199219 11.277344 15.878906 12.1875 14.644531 13.144531 C 14.84375 12.585938 15.058594 12.042969 15.292969 11.519531 C 15.539062 11.425781 15.773438 11.328125 16.027344 11.238281 C 16.851562 10.945312 17.71875 10.671875 18.609375 10.410156 Z M 55.5625 11.324219 C 59.023438 13.652344 61.9375 16.246094 64.335938 19.003906 C 64.890625 21.609375 65.105469 24.414062 65.042969 27.320312 C 64.769531 27.203125 64.511719 27.078125 64.226562 26.964844 C 62.070312 26.109375 59.640625 25.382812 57.054688 24.765625 C 55.222656 21.1875 52.9375 17.722656 50.179688 14.472656 C 51.269531 14.132812 52.273438 13.746094 53.113281 13.300781 C 54.183594 12.734375 55.015625 12.070312 55.5625 11.324219 Z M 15.066406 11.605469 C 14.816406 12.171875 14.589844 12.75 14.382812 13.351562 C 10.835938 16.148438 8.023438 19.292969 5.890625 22.632812 C 5.480469 21.386719 5.457031 20.039062 5.898438 18.570312 C 5.925781 18.488281 5.980469 18.40625 6.011719 18.324219 C 6.40625 17.640625 6.835938 16.972656 7.300781 16.324219 C 8.914062 14.53125 11.632812 12.929688 15.066406 11.605469 Z M 62.144531 12.34375 C 65.355469 14.046875 67.941406 16.257812 69.589844 19.03125 C 70.042969 21.082031 69.621094 22.894531 68.515625 24.496094 C 67.386719 22.589844 66.054688 20.730469 64.503906 18.945312 C 63.996094 16.558594 63.214844 14.335938 62.144531 12.34375 Z M 49.023438 13.390625 C 49.316406 13.71875 49.605469 14.054688 49.890625 14.386719 C 49.648438 14.457031 49.394531 14.519531 49.144531 14.585938 C 49.105469 14.179688 49.0625 13.785156 49.023438 13.390625 Z M 14.289062 13.652344 C 13.089844 17.308594 12.621094 21.605469 12.773438 26.183594 C 11.785156 26.546875 10.832031 26.9375 9.925781 27.363281 C 8.789062 26.605469 7.84375 25.777344 7.128906 24.878906 C 6.617188 24.234375 6.230469 23.550781 5.964844 22.835938 C 8.054688 19.535156 10.8125 16.425781 14.285156 13.652344 Z M 23.15625 13.804688 C 25.066406 14.628906 27.5 15.230469 30.207031 15.609375 C 30.179688 16.335938 30.15625 17.074219 30.144531 17.835938 C 29.617188 19.457031 29.136719 21.136719 28.699219 22.867188 C 23.78125 23.300781 19.082031 24.144531 14.941406 25.433594 C 17.03125 21.316406 19.742188 17.363281 23.15625 13.804688 Z M 50.007812 14.53125 C 52.742188 17.742188 55.007812 21.171875 56.832031 24.710938 C 54.480469 24.15625 52 23.691406 49.417969 23.34375 C 49.46875 20.289062 49.378906 17.402344 49.15625 14.765625 C 49.441406 14.6875 49.734375 14.613281 50.007812 14.53125 Z M 48.988281 14.808594 C 49.207031 17.425781 49.292969 20.289062 49.246094 23.324219 C 47.023438 23.027344 44.742188 22.820312 42.429688 22.683594 C 42.046875 20.414062 41.625 18.171875 41.15625 15.988281 C 43.972656 15.8125 46.660156 15.414062 48.988281 14.808594 Z M 30.378906 15.628906 L 30.867188 15.695312 C 30.679688 16.214844 30.511719 16.757812 30.332031 17.292969 C 30.34375 16.722656 30.359375 16.179688 30.378906 15.628906 Z M 31.050781 15.714844 C 32.785156 15.925781 34.59375 16.058594 36.433594 16.09375 C 37.953125 16.125 39.480469 16.089844 40.976562 16 C 41.445312 18.175781 41.871094 20.40625 42.253906 22.675781 C 41.4375 22.628906 40.621094 22.578125 39.800781 22.554688 C 38.671875 22.519531 37.539062 22.503906 36.410156 22.507812 C 34.378906 22.515625 32.351562 22.589844 30.347656 22.726562 C 30.324219 21.0625 30.296875 19.40625 30.324219 17.859375 C 30.558594 17.132812 30.796875 16.414062 31.050781 15.714844 Z M 5.976562 17.996094 C 5.941406 18.066406 5.90625 18.136719 5.875 18.210938 C 3.910156 21.613281 2.867188 25.398438 2.601562 29.335938 C 1.980469 31.074219 1.515625 32.835938 1.203125 34.605469 C 0.800781 35.3125 0.480469 36.058594 0.234375 36.835938 C 0.398438 29.917969 2.476562 23.472656 5.976562 17.996094 Z M 30.140625 18.398438 C 30.125 19.785156 30.152344 21.261719 30.175781 22.742188 C 29.742188 22.773438 29.3125 22.8125 28.882812 22.851562 C 29.269531 21.328125 29.683594 19.835938 30.140625 18.398438 Z M 5.589844 19.101562 C 5.292969 20.429688 5.363281 21.675781 5.773438 22.824219 C 4.566406 24.742188 3.585938 26.726562 2.820312 28.746094 C 3.117188 25.355469 4.015625 22.09375 5.589844 19.101562 Z M 64.574219 19.277344 C 66.054688 21.011719 67.328125 22.8125 68.414062 24.652344 C 68.246094 24.882812 68.066406 25.105469 67.875 25.324219 C 67.199219 26.09375 66.328125 26.792969 65.34375 27.449219 L 65.214844 27.394531 C 65.277344 24.566406 65.089844 21.828125 64.574219 19.277344 Z M 69.84375 19.519531 C 71.789062 23.398438 72.632812 27.71875 72.558594 32.167969 C 72.394531 31.988281 72.234375 31.808594 72.054688 31.632812 C 71.925781 31.511719 71.769531 31.398438 71.632812 31.277344 C 70.882812 29.035156 69.878906 26.820312 68.613281 24.660156 C 69.675781 23.144531 70.132812 21.425781 69.84375 19.515625 Z M 70.332031 20.121094 C 73.058594 25.09375 74.65625 30.761719 74.808594 36.777344 C 74.636719 35.179688 73.910156 33.699219 72.726562 32.347656 C 72.820312 28.070312 72.082031 23.902344 70.332031 20.121094 Z M 36.40625 22.683594 C 37.535156 22.679688 38.667969 22.691406 39.796875 22.726562 C 40.625 22.753906 41.453125 22.800781 42.28125 22.851562 C 42.847656 26.226562 43.292969 29.667969 43.671875 33.101562 C 41.53125 33.242188 39.355469 33.300781 37.179688 33.285156 C 35.019531 33.269531 32.863281 33.171875 30.75 33.003906 C 30.601562 30.722656 30.484375 28.464844 30.40625 26.265625 C 30.367188 25.105469 30.367188 24.023438 30.347656 22.90625 C 32.347656 22.769531 34.375 22.691406 36.40625 22.683594 Z M 42.453125 22.859375 C 44.757812 22.992188 47.027344 23.207031 49.238281 23.5 C 49.226562 24.398438 49.203125 25.300781 49.167969 26.222656 C 49.082031 28.304688 48.9375 30.445312 48.746094 32.601562 C 47.148438 32.808594 45.511719 32.972656 43.847656 33.085938 C 43.46875 29.660156 43.019531 26.230469 42.453125 22.859375 Z M 30.175781 22.917969 C 30.191406 24.035156 30.195312 25.117188 30.234375 26.273438 C 30.3125 28.464844 30.425781 30.714844 30.570312 32.988281 C 29.335938 32.886719 28.121094 32.753906 26.925781 32.597656 C 27.316406 30.011719 27.785156 27.453125 28.355469 24.96875 C 28.503906 24.316406 28.671875 23.675781 28.835938 23.03125 C 29.28125 22.992188 29.726562 22.953125 30.175781 22.917969 Z M 5.851562 23.019531 C 6.121094 23.707031 6.496094 24.367188 6.988281 24.988281 C 7.699219 25.878906 8.628906 26.699219 9.738281 27.449219 C 6.867188 28.820312 4.457031 30.480469 2.726562 32.46875 C 2.691406 31.421875 2.707031 30.382812 2.773438 29.351562 C 3.550781 27.191406 4.574219 25.070312 5.851562 23.019531 Z M 28.652344 23.050781 C 28.496094 23.675781 28.332031 24.292969 28.1875 24.929688 C 27.617188 27.417969 27.144531 29.984375 26.75 32.570312 C 21.957031 31.945312 17.519531 30.917969 13.96875 29.464844 C 13.710938 29.359375 13.488281 29.242188 13.238281 29.132812 C 13.71875 27.957031 14.25 26.800781 14.828125 25.648438 C 18.976562 24.339844 23.707031 23.488281 28.652344 23.050781 Z M 49.414062 23.523438 C 52.035156 23.875 54.554688 24.347656 56.9375 24.914062 C 57.84375 26.683594 58.628906 28.476562 59.316406 30.28125 C 56.253906 31.316406 52.714844 32.082031 48.921875 32.582031 C 49.109375 30.429688 49.253906 28.300781 49.339844 26.226562 C 49.375 25.3125 49.398438 24.414062 49.414062 23.523438 Z M 68.503906 24.808594 C 69.699219 26.855469 70.664062 28.953125 71.394531 31.074219 C 69.859375 29.75 67.875 28.566406 65.53125 27.53125 C 66.484375 26.886719 67.335938 26.199219 68 25.441406 C 68.179688 25.238281 68.347656 25.023438 68.503906 24.808594 Z M 57.164062 24.96875 C 59.683594 25.578125 62.054688 26.289062 64.160156 27.125 C 64.46875 27.246094 64.742188 27.378906 65.039062 27.507812 C 65.039062 27.5625 65.039062 27.613281 65.039062 27.667969 C 63.78125 28.46875 62.316406 29.1875 60.671875 29.816406 C 60.292969 29.964844 59.882812 30.089844 59.484375 30.226562 C 58.8125 28.460938 58.042969 26.703125 57.164062 24.96875 Z M 14.597656 25.71875 C 14.0625 26.789062 13.570312 27.867188 13.121094 28.957031 C 13.046875 28.0625 12.980469 27.175781 12.949219 26.300781 C 13.386719 26.140625 13.804688 25.96875 14.253906 25.820312 C 14.367188 25.785156 14.484375 25.753906 14.597656 25.71875 Z M 12.777344 26.363281 C 12.808594 27.230469 12.875 28.113281 12.949219 28.996094 C 11.917969 28.523438 10.949219 28.023438 10.105469 27.476562 C 10.957031 27.082031 11.847656 26.710938 12.777344 26.363281 Z M 9.90625 27.5625 C 10.804688 28.15625 11.851562 28.6875 12.960938 29.191406 C 12.964844 29.230469 12.96875 29.265625 12.972656 29.304688 C 10.476562 35.511719 9.367188 41.933594 9.511719 47.886719 C 8.164062 47.300781 6.953125 46.648438 5.855469 45.953125 C 4.691406 43.195312 3.804688 40.367188 3.28125 37.527344 C 2.984375 35.921875 2.804688 34.316406 2.734375 32.722656 C 4.472656 30.671875 6.945312 28.964844 9.90625 27.5625 Z M 65.363281 27.648438 C 67.847656 28.738281 69.933594 29.984375 71.5 31.386719 C 71.871094 32.503906 72.179688 33.628906 72.429688 34.753906 C 72.328125 35.804688 72.179688 36.863281 71.988281 37.921875 C 71.554688 40.265625 70.875 42.605469 70.011719 44.902344 C 68.582031 45.949219 66.902344 46.898438 64.964844 47.730469 C 64.316406 47.320312 63.628906 46.929688 62.878906 46.566406 C 62.828125 45.238281 62.722656 43.894531 62.554688 42.53125 C 63.699219 38.964844 64.523438 35.328125 64.9375 31.773438 C 65.09375 30.417969 65.171875 29.082031 65.214844 27.757812 C 65.269531 27.722656 65.3125 27.683594 65.363281 27.648438 Z M 65.035156 27.882812 C 64.992188 29.160156 64.914062 30.449219 64.765625 31.753906 C 64.367188 35.179688 63.59375 38.679688 62.511719 42.117188 C 62.007812 38.265625 61.023438 34.308594 59.546875 30.386719 C 59.945312 30.25 60.359375 30.125 60.738281 29.980469 C 62.347656 29.363281 63.789062 28.664062 65.035156 27.882812 Z M 13.171875 29.289062 C 13.421875 29.398438 13.648438 29.519531 13.90625 29.625 C 17.476562 31.089844 21.921875 32.121094 26.726562 32.746094 C 26.214844 36.140625 25.855469 39.570312 25.636719 42.9375 C 22.382812 43.402344 19.320312 44.0625 16.601562 44.917969 C 14.859375 39.902344 13.664062 34.675781 13.171875 29.660156 C 13.160156 29.554688 13.160156 29.449219 13.152344 29.339844 Z M 13 29.683594 C 13.492188 34.707031 14.6875 39.945312 16.429688 44.972656 C 15.5 45.269531 14.597656 45.582031 13.757812 45.925781 C 12.261719 46.539062 10.921875 47.226562 9.765625 47.984375 L 9.6875 47.957031 C 9.53125 42.105469 10.59375 35.796875 13 29.683594 Z M 2.5625 29.960938 C 2.519531 30.855469 2.519531 31.757812 2.554688 32.664062 C 2.144531 33.15625 1.78125 33.667969 1.449219 34.203125 C 1.71875 32.78125 2.089844 31.363281 2.5625 29.960938 Z M 59.378906 30.445312 C 60.898438 34.476562 61.894531 38.550781 62.378906 42.503906 C 62.019531 43.625 61.625 44.734375 61.195312 45.835938 C 60.988281 45.75 60.796875 45.65625 60.582031 45.574219 C 56.941406 44.179688 52.46875 43.21875 47.675781 42.664062 C 48.195312 39.386719 48.613281 36.050781 48.90625 32.757812 C 52.730469 32.257812 56.292969 31.484375 59.378906 30.441406 Z M 71.734375 31.585938 C 71.796875 31.644531 71.871094 31.699219 71.933594 31.753906 C 72.152344 31.96875 72.359375 32.191406 72.554688 32.410156 C 72.539062 32.992188 72.511719 33.574219 72.46875 34.15625 C 72.261719 33.300781 72.011719 32.441406 71.734375 31.585938 Z M 72.722656 32.613281 C 74.046875 34.179688 74.75 35.90625 74.671875 37.785156 C 74.5625 39.109375 74.109375 40.339844 73.378906 41.488281 C 73.355469 39.257812 73.09375 37 72.59375 34.746094 C 72.660156 34.03125 72.703125 33.320312 72.722656 32.613281 Z M 26.898438 32.773438 C 28.109375 32.925781 29.335938 33.0625 30.585938 33.164062 C 30.785156 36.21875 31.066406 39.285156 31.378906 42.324219 C 29.480469 42.460938 27.621094 42.65625 25.808594 42.910156 C 26.027344 39.558594 26.386719 36.148438 26.898438 32.773438 Z M 48.730469 32.78125 C 48.433594 36.058594 48.019531 39.378906 47.503906 42.640625 C 46.570312 42.535156 45.628906 42.449219 44.675781 42.371094 C 44.484375 39.390625 44.199219 36.332031 43.863281 33.257812 C 45.515625 33.148438 47.140625 32.984375 48.730469 32.78125 Z M 2.5625 32.929688 C 2.636719 34.464844 2.820312 36.011719 3.105469 37.558594 C 3.617188 40.332031 4.480469 43.09375 5.601562 45.792969 C 4.75 45.230469 3.953125 44.652344 3.285156 44.019531 C 2.222656 43.015625 1.417969 41.917969 0.898438 40.734375 C 0.859375 38.722656 1.011719 36.6875 1.367188 34.660156 C 1.710938 34.058594 2.109375 33.484375 2.5625 32.929688 Z M 30.761719 33.179688 C 32.871094 33.347656 35.027344 33.441406 37.179688 33.457031 C 39.359375 33.476562 41.542969 33.414062 43.691406 33.277344 C 44.023438 36.335938 44.308594 39.386719 44.5 42.359375 C 42.042969 42.171875 39.539062 42.074219 37.027344 42.09375 C 35.191406 42.109375 33.363281 42.191406 31.554688 42.316406 C 31.238281 39.285156 30.960938 36.226562 30.761719 33.179688 Z M 1.113281 35.140625 C 0.84375 36.863281 0.710938 38.59375 0.722656 40.308594 C 0.390625 39.421875 0.210938 38.492188 0.214844 37.507812 C 0.214844 37.5 0.214844 37.496094 0.214844 37.488281 C 0.214844 37.488281 0.214844 37.488281 0.214844 37.484375 C 0.214844 37.484375 0.214844 37.484375 0.214844 37.480469 C 0.421875 36.664062 0.734375 35.886719 1.113281 35.140625 Z M 72.527344 35.242188 C 72.976562 37.414062 73.207031 39.589844 73.214844 41.734375 C 72.636719 42.585938 71.902344 43.390625 71.019531 44.144531 C 70.792969 44.339844 70.523438 44.515625 70.277344 44.703125 C 71.09375 42.480469 71.738281 40.222656 72.152344 37.953125 C 72.320312 37.050781 72.433594 36.148438 72.527344 35.242188 Z M 74.824219 37.960938 C 74.785156 43.984375 73.277344 49.664062 70.652344 54.675781 C 72.058594 51.566406 72.949219 48.191406 73.257812 44.691406 C 73.34375 43.730469 73.386719 42.761719 73.386719 41.785156 C 74.179688 40.605469 74.679688 39.332031 74.824219 37.960938 Z M 0.253906 39.371094 C 0.367188 39.851562 0.527344 40.316406 0.726562 40.769531 C 0.746094 41.726562 0.804688 42.675781 0.90625 43.621094 C 1.109375 45.429688 1.472656 47.210938 1.976562 48.945312 C 0.996094 45.90625 0.402344 42.695312 0.253906 39.371094 Z M 0.917969 41.1875 C 1.445312 42.25 2.203125 43.234375 3.164062 44.144531 C 3.890625 44.832031 4.769531 45.46875 5.710938 46.070312 C 6.246094 47.339844 6.835938 48.59375 7.496094 49.824219 C 7.261719 50.0625 7.039062 50.308594 6.835938 50.5625 C 5.492188 52.257812 4.949219 54.21875 5.429688 56.414062 C 3.070312 52.53125 1.585938 48.152344 1.082031 43.601562 C 0.992188 42.800781 0.945312 41.996094 0.917969 41.1875 Z M 73.207031 42.054688 C 73.199219 42.933594 73.164062 43.808594 73.089844 44.675781 C 72.71875 48.820312 71.539062 52.789062 69.644531 56.34375 C 70.097656 53.984375 69.414062 51.90625 67.867188 50.136719 C 68.746094 48.464844 69.496094 46.746094 70.152344 45 C 70.480469 44.761719 70.828125 44.527344 71.125 44.277344 C 71.941406 43.578125 72.640625 42.839844 73.207031 42.054688 Z M 37.027344 42.269531 C 39.542969 42.25 42.050781 42.34375 44.511719 42.535156 C 44.722656 45.863281 44.8125 49.042969 44.839844 52.09375 C 42.179688 52.308594 39.476562 52.429688 36.765625 52.429688 C 35.441406 52.429688 34.117188 52.398438 32.800781 52.347656 C 32.332031 49.214844 31.925781 45.886719 31.570312 42.488281 C 33.375 42.367188 35.195312 42.28125 37.027344 42.269531 Z M 31.394531 42.5 C 31.746094 45.890625 32.152344 49.207031 32.621094 52.339844 C 30.226562 52.242188 27.863281 52.054688 25.5625 51.789062 C 25.5625 51.703125 25.554688 51.621094 25.554688 51.535156 C 25.523438 48.820312 25.613281 45.980469 25.796875 43.089844 C 27.617188 42.832031 29.488281 42.632812 31.394531 42.5 Z M 44.6875 42.550781 C 45.628906 42.625 46.558594 42.710938 47.476562 42.816406 C 46.96875 45.988281 46.355469 49.085938 45.664062 52.027344 L 45.015625 52.082031 C 44.984375 49.039062 44.894531 45.871094 44.6875 42.550781 Z M 47.648438 42.839844 C 52.433594 43.394531 56.894531 44.347656 60.519531 45.734375 C 60.734375 45.816406 60.921875 45.910156 61.128906 45.996094 C 60.652344 47.21875 60.136719 48.417969 59.582031 49.601562 C 55.453125 50.773438 50.75 51.570312 45.84375 52.011719 C 46.535156 49.082031 47.140625 45.996094 47.648438 42.835938 Z M 62.421875 42.921875 C 62.558594 44.121094 62.652344 45.308594 62.699219 46.484375 C 62.273438 46.28125 61.808594 46.09375 61.351562 45.90625 C 61.734375 44.917969 62.089844 43.921875 62.421875 42.921875 Z M 25.621094 43.117188 C 25.4375 45.996094 25.351562 48.828125 25.382812 51.535156 C 25.382812 51.613281 25.386719 51.6875 25.386719 51.765625 C 23.148438 51.5 20.980469 51.152344 18.910156 50.726562 C 18.078125 48.894531 17.324219 47.007812 16.652344 45.082031 C 19.347656 44.234375 22.390625 43.582031 25.621094 43.117188 Z M 16.484375 45.132812 C 17.144531 47.023438 17.886719 48.875 18.699219 50.679688 C 16.125 50.140625 13.695312 49.492188 11.519531 48.699219 C 10.976562 48.5 10.476562 48.28125 9.964844 48.066406 C 11.085938 47.34375 12.371094 46.679688 13.816406 46.085938 C 14.65625 45.742188 15.550781 45.429688 16.484375 45.132812 Z M 69.886719 45.207031 C 69.261719 46.832031 68.554688 48.4375 67.738281 49.996094 C 67.027344 49.21875 66.136719 48.503906 65.117188 47.84375 C 66.925781 47.0625 68.515625 46.179688 69.886719 45.207031 Z M 61.289062 46.066406 C 61.769531 46.265625 62.257812 46.457031 62.707031 46.675781 C 62.730469 47.316406 62.742188 47.953125 62.734375 48.585938 L 62.351562 48.734375 C 61.535156 49.015625 60.679688 49.28125 59.808594 49.53125 C 60.339844 48.394531 60.832031 47.238281 61.289062 46.066406 Z M 5.960938 46.226562 C 7.035156 46.890625 8.214844 47.507812 9.515625 48.070312 C 9.515625 48.097656 9.511719 48.125 9.515625 48.152344 C 8.800781 48.636719 8.171875 49.152344 7.621094 49.699219 C 7.011719 48.5625 6.464844 47.398438 5.960938 46.226562 Z M 62.886719 46.769531 C 63.554688 47.097656 64.1875 47.441406 64.769531 47.808594 C 64.175781 48.058594 63.546875 48.289062 62.910156 48.519531 C 62.914062 47.941406 62.90625 47.359375 62.886719 46.769531 Z M 64.9375 47.925781 C 66.007812 48.613281 66.933594 49.355469 67.65625 50.167969 C 65.957031 53.378906 63.851562 56.394531 61.453125 59.109375 C 62.214844 56.542969 62.695312 53.730469 62.863281 50.757812 C 62.902344 50.085938 62.898438 49.394531 62.90625 48.707031 C 63.601562 48.457031 64.289062 48.199219 64.9375 47.925781 Z M 9.785156 48.175781 C 10.335938 48.410156 10.882812 48.644531 11.46875 48.859375 C 13.6875 49.667969 16.164062 50.328125 18.789062 50.875 C 19.496094 52.429688 20.246094 53.957031 21.058594 55.414062 C 22.257812 57.566406 23.582031 59.578125 24.988281 61.429688 C 23.070312 62.019531 21.464844 62.742188 20.371094 63.609375 C 20.144531 63.789062 19.949219 63.976562 19.765625 64.167969 C 16.148438 61.371094 12.953125 57.917969 10.324219 54.089844 C 9.984375 52.296875 9.765625 50.429688 9.691406 48.503906 C 9.6875 48.421875 9.695312 48.335938 9.691406 48.25 C 9.726562 48.226562 9.75 48.199219 9.785156 48.175781 Z M 9.519531 48.382812 C 9.519531 48.425781 9.515625 48.46875 9.519531 48.511719 C 9.589844 50.3125 9.792969 52.0625 10.097656 53.75 C 9.242188 52.484375 8.4375 51.191406 7.714844 49.855469 C 8.234375 49.335938 8.847656 48.847656 9.519531 48.382812 Z M 62.734375 48.773438 C 62.726562 49.433594 62.730469 50.101562 62.691406 50.75 C 62.515625 53.859375 61.992188 56.777344 61.167969 59.429688 C 60.757812 59.882812 60.363281 60.347656 59.9375 60.78125 C 58.609375 62.140625 57.183594 63.378906 55.703125 64.523438 C 55.148438 63.46875 54.042969 62.601562 52.5625 61.90625 C 52.410156 61.835938 52.234375 61.777344 52.078125 61.710938 C 53.359375 60.226562 54.570312 58.644531 55.695312 56.957031 C 57.195312 54.699219 58.527344 52.265625 59.710938 49.75 C 60.640625 49.484375 61.542969 49.199219 62.410156 48.898438 C 62.523438 48.859375 62.625 48.8125 62.734375 48.773438 Z M 59.488281 49.804688 C 58.324219 52.269531 57.019531 54.648438 55.546875 56.859375 C 54.417969 58.558594 53.195312 60.152344 51.90625 61.640625 C 50 60.855469 47.578125 60.308594 44.898438 59.992188 C 44.972656 58.476562 45.027344 56.894531 45.042969 55.21875 C 45.246094 54.460938 45.449219 53.703125 45.640625 52.921875 C 45.699219 52.683594 45.753906 52.433594 45.808594 52.191406 C 50.6875 51.753906 55.367188 50.960938 59.488281 49.804688 Z M 7.585938 49.980469 C 8.363281 51.417969 9.230469 52.816406 10.164062 54.171875 C 10.816406 57.582031 11.957031 60.695312 13.519531 63.382812 C 11.339844 62.4375 9.511719 61.367188 8.152344 60.207031 C 7.257812 59.140625 6.445312 58.019531 5.710938 56.851562 C 5.042969 54.507812 5.558594 52.453125 6.976562 50.671875 C 7.164062 50.4375 7.367188 50.207031 7.585938 49.980469 Z M 67.78125 50.304688 C 69.3125 52.082031 69.964844 54.140625 69.445312 56.519531 C 67.34375 60.054688 63.703125 62.648438 59.207031 64.472656 C 60.046875 62.96875 60.753906 61.316406 61.3125 59.527344 C 63.820312 56.742188 66.015625 53.628906 67.78125 50.304688 Z M 19.003906 50.921875 C 21.050781 51.339844 23.1875 51.679688 25.394531 51.9375 C 25.445312 55.242188 25.660156 58.34375 26.019531 61.140625 C 25.730469 61.21875 25.445312 61.296875 25.167969 61.378906 C 23.75 59.515625 22.417969 57.496094 21.210938 55.328125 C 20.421875 53.914062 19.695312 52.429688 19.003906 50.921875 Z M 25.570312 51.960938 C 27.878906 52.230469 30.246094 52.414062 32.648438 52.511719 C 32.683594 52.746094 32.710938 53.003906 32.746094 53.234375 C 33.109375 55.582031 33.5 57.792969 33.914062 59.851562 C 31.144531 60.078125 28.492188 60.496094 26.195312 61.09375 C 25.835938 58.316406 25.621094 55.238281 25.570312 51.960938 Z M 45.628906 52.207031 C 45.574219 52.429688 45.523438 52.660156 45.472656 52.882812 C 45.335938 53.445312 45.1875 53.984375 45.042969 54.53125 C 45.046875 53.800781 45.023438 53.015625 45.019531 52.261719 Z M 44.84375 52.273438 C 44.851562 53.203125 44.882812 54.175781 44.875 55.070312 C 44.875 55.113281 44.871094 55.148438 44.871094 55.1875 C 44.433594 56.820312 43.964844 58.375 43.472656 59.851562 C 41.703125 59.695312 39.855469 59.625 37.992188 59.648438 C 37.195312 59.660156 36.394531 59.6875 35.597656 59.730469 C 35.09375 59.753906 34.59375 59.796875 34.089844 59.835938 C 33.675781 57.777344 33.28125 55.558594 32.917969 53.207031 C 32.886719 52.988281 32.859375 52.742188 32.824219 52.523438 C 34.136719 52.570312 35.449219 52.605469 36.769531 52.605469 C 39.476562 52.605469 42.183594 52.488281 44.84375 52.273438 Z M 10.421875 54.550781 C 13.007812 58.246094 16.128906 61.578125 19.644531 64.296875 C 19.367188 64.613281 19.148438 64.945312 19.003906 65.292969 C 17.921875 64.988281 16.863281 64.667969 15.875 64.316406 C 15.148438 64.054688 14.453125 63.78125 13.785156 63.5 C 12.234375 60.894531 11.097656 57.867188 10.421875 54.550781 Z M 44.847656 55.96875 C 44.828125 57.355469 44.789062 58.699219 44.722656 59.972656 C 44.371094 59.929688 44.011719 59.894531 43.652344 59.863281 C 44.066406 58.617188 44.472656 57.332031 44.847656 55.972656 Z M 69.105469 57.316406 C 68.992188 57.515625 68.871094 57.710938 68.753906 57.902344 C 67.34375 60.03125 65.730469 62.015625 63.925781 63.808594 L 63.898438 63.832031 C 61.578125 65.980469 58.855469 67.75 55.785156 69.039062 C 57.046875 67.824219 58.128906 66.355469 59.070312 64.714844 C 63.371094 63.003906 66.898438 60.578125 69.105469 57.316406 Z M 38 59.824219 C 39.839844 59.800781 41.664062 59.875 43.414062 60.023438 C 42.382812 63.09375 41.242188 65.777344 40.015625 67.871094 C 38.71875 67.890625 37.421875 67.875 36.128906 67.832031 C 35.421875 65.738281 34.75 63.074219 34.125 60.011719 C 34.621094 59.972656 35.109375 59.929688 35.609375 59.902344 C 36.402344 59.859375 37.203125 59.835938 38 59.824219 Z M 61.023438 59.851562 C 60.464844 61.558594 59.769531 63.136719 58.949219 64.578125 C 58.015625 64.945312 57.054688 65.289062 56.054688 65.59375 C 56.003906 65.28125 55.902344 64.984375 55.773438 64.699219 C 57.273438 63.539062 58.71875 62.28125 60.0625 60.90625 C 60.394531 60.566406 60.703125 60.199219 61.023438 59.851562 Z M 33.953125 60.023438 C 34.570312 63.070312 35.242188 65.726562 35.945312 67.828125 C 35.671875 67.816406 35.398438 67.8125 35.128906 67.800781 C 33.71875 67.734375 32.324219 67.621094 30.945312 67.484375 C 29.371094 66.199219 27.875 64.691406 26.460938 63.011719 C 26.371094 62.453125 26.292969 61.859375 26.214844 61.269531 C 28.511719 60.671875 31.171875 60.25 33.953125 60.023438 Z M 43.597656 60.035156 C 43.976562 60.070312 44.347656 60.113281 44.71875 60.152344 C 44.570312 63.015625 44.324219 65.566406 43.976562 67.695312 C 42.730469 67.785156 41.476562 67.847656 40.214844 67.871094 C 41.4375 65.765625 42.570312 63.089844 43.597656 60.035156 Z M 44.890625 60.175781 C 47.53125 60.488281 49.914062 61.015625 51.792969 61.777344 C 49.835938 64.015625 47.710938 65.988281 45.441406 67.585938 C 45.015625 67.625 44.585938 67.652344 44.15625 67.683594 C 44.503906 65.554688 44.746094 63.015625 44.890625 60.175781 Z M 8.058594 60.359375 L 8.082031 60.378906 C 10.351562 63.066406 13.109375 65.398438 16.3125 67.226562 C 16.566406 67.5 16.828125 67.769531 17.09375 68.027344 C 18.144531 69.03125 19.300781 69.898438 20.554688 70.617188 C 15.664062 68.136719 11.402344 64.621094 8.058594 60.359375 Z M 8.800781 60.945312 C 10.121094 61.925781 11.761719 62.824219 13.667969 63.632812 C 14.351562 64.773438 15.097656 65.847656 15.941406 66.808594 C 13.21875 65.191406 10.828125 63.207031 8.800781 60.945312 Z M 26.042969 61.320312 C 26.105469 61.796875 26.167969 62.277344 26.242188 62.734375 C 25.917969 62.34375 25.605469 61.941406 25.289062 61.53125 Z M 25.109375 61.578125 C 25.5 62.089844 25.886719 62.601562 26.292969 63.085938 C 26.527344 64.511719 26.816406 65.816406 27.140625 67.019531 C 25.597656 66.789062 24.085938 66.515625 22.632812 66.203125 C 21.695312 65.601562 20.785156 64.957031 19.898438 64.277344 C 20.070312 64.09375 20.257812 63.914062 20.476562 63.742188 C 21.554688 62.890625 23.171875 62.167969 25.109375 61.578125 Z M 51.960938 61.847656 C 52.132812 61.921875 52.324219 61.988281 52.488281 62.066406 C 53.964844 62.761719 55.035156 63.617188 55.558594 64.640625 C 54.761719 65.253906 53.949219 65.839844 53.113281 66.378906 C 50.773438 66.917969 48.316406 67.3125 45.792969 67.558594 C 47.996094 65.96875 50.058594 64.03125 51.960938 61.847656 Z M 26.53125 63.378906 C 27.828125 64.894531 29.199219 66.261719 30.628906 67.453125 C 29.515625 67.339844 28.414062 67.210938 27.332031 67.054688 C 27.023438 65.929688 26.757812 64.703125 26.53125 63.378906 Z M 13.925781 63.75 C 14.535156 64.003906 15.164062 64.246094 15.820312 64.480469 C 16.804688 64.832031 17.855469 65.152344 18.9375 65.457031 C 18.707031 66.121094 18.734375 66.835938 19.066406 67.585938 C 19.230469 67.964844 19.476562 68.351562 19.796875 68.746094 C 18.625 68.253906 17.496094 67.707031 16.425781 67.097656 C 15.496094 66.09375 14.667969 64.964844 13.925781 63.75 Z M 19.78125 64.40625 C 20.558594 65.003906 21.359375 65.566406 22.175781 66.101562 C 21.140625 65.871094 20.144531 65.613281 19.175781 65.339844 C 19.3125 65.019531 19.515625 64.707031 19.78125 64.40625 Z M 55.632812 64.8125 C 55.753906 65.078125 55.839844 65.355469 55.882812 65.644531 C 55.789062 65.671875 55.703125 65.710938 55.609375 65.738281 C 54.96875 65.921875 54.3125 66.089844 53.648438 66.25 C 54.328125 65.796875 54.980469 65.308594 55.632812 64.8125 Z M 58.8125 64.816406 C 57.847656 66.460938 56.734375 67.933594 55.445312 69.128906 L 55.3125 69.242188 C 55.128906 69.316406 54.9375 69.378906 54.746094 69.449219 C 55.773438 68.078125 56.183594 66.851562 56.070312 65.765625 C 57.015625 65.480469 57.925781 65.160156 58.8125 64.816406 Z M 19.101562 65.507812 C 20.214844 65.816406 21.359375 66.105469 22.554688 66.363281 C 24.238281 67.4375 25.988281 68.367188 27.800781 69.136719 C 28.058594 69.847656 28.332031 70.511719 28.632812 71.09375 C 25.589844 70.703125 22.761719 69.953125 20.164062 68.898438 C 19.738281 68.421875 19.417969 67.957031 19.226562 67.519531 C 18.910156 66.796875 18.882812 66.128906 19.101562 65.507812 Z M 55.898438 65.824219 C 55.996094 66.898438 55.570312 68.140625 54.453125 69.558594 C 51.113281 70.769531 47.386719 71.417969 43.320312 71.375 C 43.382812 71.179688 43.445312 70.996094 43.503906 70.78125 C 46.910156 69.957031 50.167969 68.488281 53.191406 66.539062 C 54.027344 66.347656 54.851562 66.136719 55.65625 65.902344 C 55.738281 65.878906 55.816406 65.847656 55.898438 65.824219 Z M 61.433594 66.058594 C 58.921875 68.140625 56.128906 69.894531 53.121094 71.269531 L 53.125 71.261719 C 53.28125 71.113281 53.414062 70.972656 53.554688 70.828125 C 54.210938 70.394531 54.835938 69.910156 55.425781 69.371094 C 57.609375 68.496094 59.613281 67.378906 61.433594 66.058594 Z M 23.035156 66.460938 C 24.378906 66.742188 25.761719 66.996094 27.183594 67.207031 C 27.351562 67.808594 27.535156 68.371094 27.722656 68.914062 C 26.113281 68.21875 24.542969 67.402344 23.035156 66.460938 Z M 52.707031 66.644531 C 49.835938 68.445312 46.761719 69.800781 43.550781 70.589844 C 43.699219 70.035156 43.835938 69.421875 43.964844 68.769531 C 44.484375 68.449219 45 68.109375 45.507812 67.753906 C 47.984375 67.523438 50.398438 67.15625 52.707031 66.644531 Z M 27.378906 67.234375 C 28.527344 67.402344 29.699219 67.535156 30.878906 67.652344 C 32.789062 69.207031 34.808594 70.433594 36.917969 71.261719 L 36.71875 71.28125 C 33.691406 70.976562 30.75 70.1875 27.945312 69.003906 C 27.746094 68.449219 27.554688 67.863281 27.378906 67.234375 Z M 16.824219 67.5 C 17.855469 68.066406 18.933594 68.578125 20.050781 69.035156 C 20.839844 69.914062 22.070312 70.851562 23.699219 71.832031 C 21.226562 71.011719 19.058594 69.671875 17.210938 67.898438 C 17.078125 67.773438 16.953125 67.632812 16.824219 67.5 Z M 31.199219 67.6875 C 32.496094 67.8125 33.800781 67.914062 35.121094 67.972656 L 36 68 C 36.449219 69.308594 36.90625 70.402344 37.375 71.214844 C 37.351562 71.21875 37.328125 71.222656 37.300781 71.222656 C 35.175781 70.429688 33.132812 69.226562 31.199219 67.6875 Z M 45.164062 67.777344 C 44.78125 68.042969 44.394531 68.296875 44.003906 68.539062 C 44.042969 68.316406 44.089844 68.09375 44.128906 67.859375 Z M 43.945312 67.875 C 43.898438 68.144531 43.847656 68.40625 43.800781 68.664062 C 42.117188 69.6875 40.367188 70.507812 38.558594 71.097656 C 38.300781 71.128906 38.042969 71.148438 37.78125 71.175781 L 37.800781 71.160156 C 37.800781 71.15625 37.800781 71.152344 37.804688 71.148438 C 38.609375 70.351562 39.382812 69.296875 40.125 68.042969 C 41.40625 68.019531 42.679688 67.960938 43.945312 67.875 Z M 36.183594 68.003906 C 37.425781 68.046875 38.675781 68.0625 39.921875 68.042969 C 39.199219 69.253906 38.453125 70.265625 37.679688 71.03125 L 37.675781 71.035156 L 37.667969 71.035156 C 37.625 71.085938 37.585938 71.117188 37.542969 71.167969 C 37.082031 70.378906 36.625 69.300781 36.183594 68.003906 Z M 43.761719 68.894531 C 43.636719 69.519531 43.503906 70.101562 43.363281 70.632812 C 42.289062 70.886719 41.203125 71.078125 40.101562 71.203125 C 39.769531 71.167969 39.433594 71.140625 39.097656 71.097656 C 40.699219 70.535156 42.257812 69.796875 43.761719 68.894531 Z M 20.429688 69.191406 C 22.984375 70.195312 25.761719 70.910156 28.738281 71.28125 C 29.039062 71.835938 29.355469 72.328125 29.695312 72.742188 C 27.824219 72.761719 26.078125 72.527344 24.453125 72.070312 C 22.664062 71.054688 21.304688 70.089844 20.429688 69.191406 Z M 28.019531 69.230469 C 30.484375 70.257812 33.050781 70.976562 35.695312 71.335938 C 33.308594 71.460938 31.019531 71.382812 28.84375 71.121094 C 28.832031 71.097656 28.820312 71.082031 28.808594 71.0625 C 28.523438 70.519531 28.265625 69.894531 28.019531 69.230469 Z M 54.957031 69.550781 C 54.6875 69.78125 54.410156 70 54.128906 70.210938 C 54.28125 70.039062 54.4375 69.863281 54.570312 69.695312 Z M 54.234375 69.820312 C 54 70.101562 53.738281 70.390625 53.449219 70.683594 C 50.511719 72.621094 46.929688 73.449219 42.773438 72.804688 C 42.859375 72.621094 42.949219 72.464844 43.03125 72.257812 C 43.113281 72.042969 43.183594 71.785156 43.261719 71.546875 C 47.257812 71.589844 50.929688 70.980469 54.234375 69.820312 Z M 43.320312 70.824219 C 43.261719 71.023438 43.195312 71.1875 43.136719 71.371094 C 42.414062 71.359375 41.683594 71.332031 40.941406 71.277344 C 41.742188 71.160156 42.53125 71.007812 43.320312 70.824219 Z M 38.824219 71.246094 L 38.84375 71.246094 L 39.285156 71.292969 C 38.988281 71.316406 38.6875 71.324219 38.386719 71.335938 C 38.453125 71.316406 38.519531 71.289062 38.585938 71.265625 C 38.664062 71.257812 38.742188 71.253906 38.824219 71.246094 Z M 28.960938 71.308594 C 31.410156 71.601562 33.996094 71.660156 36.710938 71.453125 C 36.867188 71.46875 37.023438 71.484375 37.179688 71.496094 C 37.042969 71.53125 36.90625 71.578125 36.765625 71.609375 L 36.761719 71.609375 C 34.324219 72.34375 32.042969 72.699219 29.910156 72.738281 C 29.574219 72.34375 29.261719 71.851562 28.960938 71.308594 Z M 37.699219 71.359375 C 37.691406 71.359375 37.683594 71.363281 37.675781 71.367188 L 37.660156 71.363281 Z M 40.113281 71.375 C 41.121094 71.472656 42.109375 71.527344 43.082031 71.546875 C 43.011719 71.761719 42.945312 72 42.871094 72.191406 C 42.785156 72.414062 42.6875 72.582031 42.597656 72.773438 C 41.160156 72.539062 39.65625 72.125 38.089844 71.523438 C 38.765625 71.5 39.441406 71.449219 40.113281 71.375 Z M 37.574219 71.566406 C 38.117188 72.539062 38.632812 73.292969 39.121094 73.804688 C 39.394531 74.085938 39.660156 74.300781 39.921875 74.453125 C 39.640625 74.464844 39.359375 74.488281 39.078125 74.496094 C 37.179688 74.546875 35.285156 74.484375 33.484375 74.324219 C 34.671875 74.0625 35.972656 73.183594 37.382812 71.617188 Z M 37.792969 71.597656 C 39.441406 72.246094 41.015625 72.683594 42.523438 72.933594 C 42.308594 73.363281 42.082031 73.742188 41.839844 73.996094 C 41.683594 74.164062 41.523438 74.285156 41.355469 74.375 C 41.003906 74.398438 40.648438 74.414062 40.292969 74.433594 C 39.96875 74.3125 39.617188 74.074219 39.246094 73.6875 C 38.792969 73.214844 38.304688 72.496094 37.792969 71.597656 Z M 52.1875 71.625 C 52.0625 71.695312 51.949219 71.773438 51.816406 71.84375 L 51.152344 72.105469 C 51.503906 71.960938 51.851562 71.796875 52.1875 71.625 Z M 37.015625 71.71875 C 35.378906 73.453125 33.917969 74.265625 32.648438 74.238281 C 32.429688 74.214844 32.214844 74.191406 32.003906 74.164062 C 31.296875 73.992188 30.644531 73.5625 30.050781 72.90625 C 32.15625 72.851562 34.410156 72.5 36.804688 71.78125 L 36.8125 71.773438 Z M 23.410156 71.917969 C 23.730469 72.03125 24.046875 72.136719 24.378906 72.230469 C 24.492188 72.296875 24.585938 72.359375 24.703125 72.421875 C 24.265625 72.265625 23.839844 72.09375 23.410156 71.917969 Z M 50.769531 72.253906 C 48.71875 73.027344 46.582031 73.617188 44.378906 74.027344 C 43.507812 74.15625 42.621094 74.261719 41.71875 74.339844 C 41.804688 74.269531 41.886719 74.203125 41.964844 74.117188 C 42.230469 73.835938 42.472656 73.429688 42.699219 72.964844 C 45.6875 73.433594 48.386719 73.15625 50.769531 72.253906 Z M 24.96875 72.378906 C 26.488281 72.753906 28.109375 72.9375 29.828125 72.914062 C 30.28125 73.433594 30.769531 73.824219 31.289062 74.078125 C 30.097656 73.910156 28.972656 73.691406 27.953125 73.429688 C 27.816406 73.394531 27.683594 73.355469 27.550781 73.316406 C 26.652344 73.070312 25.832031 72.792969 25.136719 72.480469 C 25.136719 72.476562 25.136719 72.476562 25.132812 72.476562 C 25.074219 72.441406 25.03125 72.410156 24.96875 72.378906 Z M 24.96875 72.378906 " fill-opacity="1" fill-rule="evenodd"/></g></svg>